<?xml version="1.0" encoding="UTF-8" standalone="no"?>
<svg
   width="73"
   height="62"
   viewBox="0 0 73 62"
   fill="none"
   version="1.1"
   id="svg4"
   sodipodi:docname="inverted.svg"
   inkscape:version="1.2 (dc2aedaf03, 2022-05-15)"
   xmlns:inkscape="http://www.inkscape.org/namespaces/inkscape"
   xmlns:sodipodi="http://sodipodi.sourceforge.net/DTD/sodipodi-0.dtd"
   xmlns="http://www.w3.org/2000/svg"
   xmlns:svg="http://www.w3.org/2000/svg">
  <defs
     id="defs8" />
  <sodipodi:namedview
     id="namedview6"
     pagecolor="#ffffff"
     bordercolor="#999999"
     borderopacity="1"
     inkscape:showpageshadow="0"
     inkscape:pageopacity="0"
     inkscape:pagecheckerboard="0"
     inkscape:deskcolor="#d1d1d1"
     showgrid="false"
     inkscape:zoom="12.83871"
     inkscape:cx="36.530151"
     inkscape:cy="31"
     inkscape:window-width="1920"
     inkscape:window-height="991"
     inkscape:window-x="-9"
     inkscape:window-y="-9"
     inkscape:window-maximized="1"
     inkscape:current-layer="svg4" />
  <path
     d="M27.6157 61.882H0.17627V46.7467C0.17627 37.2373 1.33773 29.0345 3.66064 22.1383C6.05615 15.1696 10.0487 8.05562 15.6382 0.796509L26.3091 9.18079C23.6232 13.1007 21.627 16.4762 20.3203 19.3073C19.0863 22.1383 17.8522 25.913 16.6182 30.6315H27.6157V61.882ZM72.0415 61.882H44.6021V46.7467C44.6021 37.2373 45.7635 29.0345 48.0864 22.1383C50.4093 15.1696 54.4019 8.05562 60.064 0.796509L70.7349 9.18079C68.049 13.1007 66.0527 16.4762 64.7461 19.3073C63.512 22.1383 62.278 25.913 61.0439 30.6315H72.0415V61.882Z"
     fill="white"
     id="path2"
     style="fill:#000000" />
</svg>
